<?xml version="1.0" standalone="no"?>
<!DOCTYPE svg PUBLIC "-//W3C//DTD SVG 20010904//EN"
 "http://www.w3.org/TR/2001/REC-SVG-20010904/DTD/svg10.dtd">
<svg version="1.0" xmlns="http://www.w3.org/2000/svg"
 width="512.000000pt" height="512.000000pt" viewBox="0 0 512.000000 512.000000"
 preserveAspectRatio="xMidYMid meet">

<g transform="translate(0.000000,512.000000) scale(0.100000,-0.100000)"
fill="#000000" stroke="none">
<path d="M1975 4559 c-232 -34 -439 -188 -541 -404 -48 -101 -58 -151 -90
-433 -16 -139 -31 -258 -35 -263 -5 -8 -66 -4 -206 11 -110 13 -212 20 -227
16 -17 -4 -32 -18 -41 -39 -8 -17 -125 -526 -259 -1130 -180 -805 -243 -1103
-237 -1120 5 -13 16 -29 25 -37 12 -9 246 -40 734 -96 394 -45 741 -86 770
-89 l52 -6 0 -174 c0 -188 6 -217 49 -235 21 -8 231 12 1005 98 l979 108 23
28 c53 61 11 133 -74 129 -40 -2 -914 -96 -1250 -134 -56 -7 -104 -10 -106 -8
-5 5 -435 1976 -438 2009 -3 24 -3 24 146 40 100 11 149 12 151 5 2 -5 8 -48
13 -95 12 -94 29 -120 84 -120 71 0 89 38 76 154 -5 43 -6 82 -1 86 4 4 100
17 213 29 113 12 357 38 543 58 185 20 339 34 342 32 2 -3 8 -42 14 -87 12
-97 21 -115 59 -131 36 -15 75 -2 98 33 14 22 15 37 6 113 -6 49 -9 90 -6 92
2 2 74 11 159 20 l156 17 6 -24 c3 -14 103 -471 222 -1016 210 -958 216 -991
196 -998 -11 -3 -112 -16 -225 -28 -113 -11 -218 -26 -233 -32 -50 -19 -62
-76 -26 -122 26 -34 40 -33 379 3 258 28 265 30 287 56 13 14 23 34 23 43 0 9
-108 514 -240 1122 -161 738 -247 1113 -259 1130 -24 34 -59 35 -282 11 -101
-11 -184 -19 -185 -18 -2 1 -14 112 -28 247 -15 135 -31 270 -37 300 -15 76
-55 173 -101 246 -46 74 -162 186 -240 232 -190 113 -448 128 -650 39 l-55
-24 -29 46 c-43 68 -145 165 -224 212 -82 48 -186 83 -293 98 -88 12 -107 12
-192 0z m240 -164 c134 -34 256 -120 330 -230 l36 -55 -59 -66 c-72 -78 -136
-195 -162 -300 -21 -81 -26 -231 -11 -346 7 -54 6 -58 -13 -58 -53 2 -846 97
-852 103 -10 9 44 479 62 552 24 91 72 173 145 247 137 137 346 198 524 153z
m973 -290 c209 -49 373 -221 415 -435 18 -90 63 -517 55 -525 -3 -3 -107 -16
-231 -28 l-225 -23 5 51 c4 44 2 53 -19 73 -22 20 -49 25 -232 47 -115 13
-209 25 -211 27 -2 2 1 38 6 81 13 102 -9 146 -74 147 -45 0 -74 -38 -82 -106
-11 -104 -12 -106 -48 -102 l-32 3 -14 120 c-22 186 3 304 92 437 l42 63 6
-39 c4 -22 3 -71 -2 -110 -13 -115 -11 -134 16 -161 44 -45 114 -23 132 43 10
37 10 287 0 340 l-9 42 49 22 c107 48 243 61 361 33z m-2025 -796 l129 -13 -7
-95 c-6 -89 -5 -98 15 -124 17 -21 30 -27 59 -27 59 0 78 28 91 135 6 49 12
90 13 91 5 2 908 -104 911 -107 2 -2 7 -39 11 -81 5 -62 4 -78 -7 -78 -7 0
-92 -9 -188 -20 -96 -11 -183 -20 -193 -20 -10 0 -32 -13 -48 -29 l-29 -29 0
-886 c0 -487 -3 -886 -7 -886 -5 0 -216 23 -470 52 l-463 53 0 290 c0 331 -4
359 -56 381 -29 12 -34 19 -34 48 0 29 4 34 30 39 64 13 62 -8 68 693 l5 635
21 -4 c12 -3 79 -11 149 -18z m1398 -206 c-4 -44 -5 -46 -12 -18 -11 48 -10
65 4 65 9 0 11 -14 8 -47z m339 2 c68 -9 126 -17 128 -19 5 -5 -51 -14 -181
-27 -64 -7 -120 -10 -123 -6 -3 3 -3 19 1 36 8 37 5 37 175 16z"/>
</g>
</svg>
